<?xml version="1.0" standalone="no"?>
<!DOCTYPE svg PUBLIC "-//W3C//DTD SVG 20010904//EN"
 "http://www.w3.org/TR/2001/REC-SVG-20010904/DTD/svg10.dtd">
<svg version="1.0" xmlns="http://www.w3.org/2000/svg"
 width="300.000000pt" height="184.000000pt" viewBox="0 0 300.000000 184.000000"
 preserveAspectRatio="xMidYMid meet">
<metadata>
Created by potrace 1.10, written by Peter Selinger 2001-2011
</metadata>
<g transform="translate(0.000000,184.000000) scale(0.100000,-0.100000)"
fill="#0B8A3C" stroke="none">
<path d="M1190 1685 c-147 -33 -276 -128 -352 -259 -97 -166 -228 -587 -228
-732 0 -94 28 -124 153 -161 100 -29 185 -82 266 -166 231 -240 222 -232 291
-256 74 -26 196 -37 255 -24 35 8 40 12 37 34 -14 97 -7 155 33 261 22 59 45
108 52 108 6 0 24 -39 38 -87 15 -49 42 -120 60 -159 43 -89 75 -110 159 -101
32 3 64 11 72 18 18 15 18 43 0 58 -39 32 -104 267 -85 304 6 11 8 40 4 68 -5
33 -3 54 5 64 7 9 9 26 5 45 -4 20 -3 30 5 30 9 0 11 12 6 39 -6 37 -5 38 34
54 22 8 43 23 47 33 4 10 -15 59 -51 132 -43 87 -56 121 -51 142 4 17 -4 55
-20 104 -23 64 -25 81 -16 108 18 51 10 102 -33 199 -5 12 2 18 32 27 92 28
77 89 -28 113 -48 11 -108 -6 -140 -41 l-27 -29 -42 25 c-75 42 -138 55 -281
60 -96 3 -154 -1 -200 -11z m50 -45 c0 -5 -11 -10 -24 -10 -14 0 -27 -4 -30
-9 -3 -5 -30 -20 -60 -35 -64 -31 -133 -107 -172 -190 -26 -55 -28 -57 -58
-50 -46 9 -50 18 -25 65 28 56 119 146 183 182 73 41 186 69 186 47z m353 -12
c9 -5 17 -7 17 -4 0 2 24 -8 53 -23 50 -25 52 -28 53 -69 l1 -42 -49 46 c-27
25 -81 61 -121 80 l-72 34 50 -6 c28 -4 58 -11 68 -16z m285 -16 c2 -7 -10
-15 -28 -18 -42 -9 -66 -44 -49 -76 6 -13 20 -33 31 -45 25 -27 35 -102 18
-132 -14 -27 -57 -46 -122 -55 l-48 -7 0 38 c0 38 -21 80 -47 96 -7 4 -13 14
-13 22 0 20 -48 73 -81 90 -15 8 -45 15 -65 15 -20 0 -54 5 -75 11 -31 10 -42
9 -62 -4 -16 -10 -37 -13 -71 -10 -44 5 -52 2 -116 -42 -59 -40 -100 -89 -100
-119 0 -3 -11 -22 -25 -42 -28 -41 -31 -70 -10 -98 10 -14 11 -24 4 -38 -12
-22 -4 -53 22 -87 11 -13 19 -34 19 -46 0 -26 52 -75 80 -75 19 0 30 -19 30
-54 0 -43 -18 -45 -87 -8 -80 43 -116 94 -134 191 -22 127 25 282 114 374 24
24 74 59 112 78 67 33 73 34 190 34 116 0 123 -1 186 -32 75 -37 132 -94 179
-176 28 -51 33 -54 58 -48 39 10 42 57 7 99 -55 65 -51 142 9 167 35 16 68 14
74 -3z m-353 -118 c31 -14 67 -63 64 -86 -3 -28 2 -37 17 -31 22 8 44 -22 44
-59 0 -19 -10 -38 -27 -54 l-27 -25 -18 35 c-10 20 -31 45 -48 57 -24 18 -28
27 -23 51 6 30 -18 68 -44 68 -15 0 -18 -26 -3 -35 6 -3 10 -17 10 -31 0 -19
-5 -24 -25 -24 -28 0 -65 32 -65 55 0 9 -9 33 -20 55 -11 22 -20 42 -20 45 0
11 154 -7 185 -21z m-214 -10 c9 -8 22 -33 28 -56 20 -64 39 -87 79 -93 57
-10 91 -26 112 -53 58 -73 -20 -157 -126 -137 -34 6 -37 8 -21 20 18 13 23 45
7 45 -6 0 -19 -5 -29 -12 -17 -10 -30 -7 -82 20 -69 36 -91 39 -133 17 -40
-21 -72 -19 -90 7 -19 26 -20 51 -6 79 11 19 11 19 38 0 36 -25 122 -37 122
-16 0 19 -31 35 -68 35 -65 0 -69 59 -7 102 98 69 136 78 176 42z m-415 -181
c-2 -10 -7 -32 -11 -49 -5 -25 -12 -33 -37 -38 -17 -3 -33 -4 -36 -1 -3 3 5
28 18 55 19 40 28 50 47 50 18 0 23 -4 19 -17z m953 -69 c37 -8 61 -53 61
-115 0 -27 16 -71 51 -140 28 -56 47 -105 42 -109 -4 -5 -33 -10 -63 -12 -41
-3 -58 0 -67 12 -10 13 -12 13 -18 -3 -10 -24 12 -47 45 -47 25 0 39 -18 40
-51 0 -3 -26 -12 -57 -18 -79 -18 -83 -19 -83 -29 0 -4 26 -6 58 -4 44 3 61 0
71 -12 18 -21 6 -36 -30 -36 -34 0 -37 -15 -9 -45 27 -29 32 -61 14 -80 -47
-46 -304 24 -411 112 -24 19 -43 30 -43 26 0 -16 57 -97 89 -127 38 -36 38
-53 6 -171 -15 -55 -25 -116 -25 -158 0 -64 -1 -68 -21 -65 -17 2 -31 24 -61
92 -36 82 -87 167 -152 257 -26 34 -27 38 -17 100 6 35 11 97 11 137 0 39 3
72 8 72 4 -1 18 -7 32 -15 14 -8 42 -14 63 -15 30 0 40 5 49 25 15 32 4 43
-21 21 -37 -33 -107 9 -146 88 -29 58 -31 85 -10 126 29 57 82 66 124 21 l28
-30 40 24 c22 12 70 48 107 78 86 74 202 109 295 91z m-572 -50 l28 -19 -55
-5 c-30 -3 -70 -14 -89 -24 -49 -26 -111 -3 -111 42 0 14 7 17 39 14 22 -2 48
1 58 7 25 16 97 7 130 -15z m-467 6 c0 -5 11 -10 25 -10 14 0 25 -4 25 -10 0
-5 -3 -9 -7 -8 -5 1 -25 -2 -46 -7 -45 -9 -47 -7 -36 23 8 22 39 31 39 12z
m94 -34 c-5 -13 -8 -13 -20 -1 -17 17 -18 32 -1 38 16 5 29 -17 21 -37z m-15
-72 c7 -26 11 -48 9 -49 -6 -5 -151 -35 -155 -32 -1 2 5 28 15 58 20 57 19 56
108 68 7 0 17 -20 23 -45z m368 25 c-15 -12 -34 -34 -43 -50 -18 -36 -59 -39
-98 -8 -35 28 -33 37 9 37 19 0 50 9 67 21 18 11 47 21 63 21 l30 -1 -28 -20z
m-297 -136 c0 -7 -3 -12 -7 -11 -20 5 -144 -16 -197 -33 -32 -11 -61 -18 -64
-15 -3 3 -1 20 5 38 7 25 14 32 29 29 63 -12 131 -1 177 28 l32 20 12 -22 c7
-12 12 -28 13 -34z m41 -94 c27 -28 49 -52 49 -55 0 -2 -22 -4 -49 -4 -61 0
-192 -24 -265 -50 l-57 -19 7 37 c15 81 18 86 65 100 44 13 163 39 187 41 7 1
36 -22 63 -50z m245 1 c19 -28 24 -43 16 -52 -5 -7 -13 -47 -16 -88 -6 -72
-13 -133 -21 -175 -2 -11 -4 -24 -4 -28 -1 -5 -5 -5 -11 -2 -5 3 -20 8 -31 10
-34 7 -34 13 -4 36 25 20 27 27 23 76 -7 79 -19 85 -148 78 -117 -7 -220 -27
-287 -57 -49 -22 -62 -41 -44 -69 17 -28 -11 -25 -44 4 -21 18 -27 31 -27 67
0 74 0 74 17 60 17 -14 56 -11 185 19 52 12 113 25 135 28 45 6 85 27 85 46 0
7 -7 23 -16 35 -14 21 -14 22 6 22 11 0 36 -7 56 -15 33 -14 36 -13 67 15 18
16 33 30 34 30 2 0 15 -18 29 -40z m-81 -223 l1 -53 -116 -13 c-63 -7 -131
-13 -150 -13 -37 0 -170 41 -170 53 0 18 289 75 395 78 l40 1 0 -53z m-147
-128 c-21 -11 -38 -26 -38 -35 0 -18 -35 -11 -63 14 -29 25 1 37 98 40 l40 1
-37 -20z m636 5 c21 -8 20 -21 -4 -51 -11 -14 -20 -34 -20 -44 0 -11 -4 -19
-10 -19 -5 0 -9 -3 -8 -7 3 -15 -15 -68 -30 -88 -14 -20 -14 -20 -7 0 4 11 9
36 12 55 2 19 9 52 14 73 6 20 7 41 4 46 -8 14 5 41 20 41 7 0 20 -3 29 -6z
m-426 -64 c17 -21 32 -40 32 -42 0 -2 -38 -4 -84 -6 -81 -3 -85 -2 -129 30
-25 18 -46 36 -46 40 -1 9 45 14 129 16 64 2 65 1 98 -38z m672 -31 c0 -13 -8
-14 -51 -9 -28 4 -55 13 -60 21 -7 11 2 15 44 19 52 5 67 -1 67 -31z m-590
-28 c15 -29 13 -31 -25 -31 -39 0 -42 5 -18 32 21 23 30 23 43 -1z m-130 -32
c0 -3 -11 -16 -25 -29 l-25 -23 -25 23 c-14 13 -25 26 -25 29 0 3 22 6 50 6
27 0 50 -3 50 -6z m703 -9 c20 0 31 -7 39 -25 6 -14 9 -27 6 -30 -2 -3 -29 3
-59 13 -37 11 -55 23 -57 36 -3 15 0 18 19 13 13 -4 36 -7 52 -7z m-544 -66
c12 -20 21 -38 19 -39 -2 -1 -32 -5 -68 -8 l-65 -6 -32 38 c-18 21 -29 41 -26
45 4 3 39 6 79 6 l72 0 21 -36z m568 -41 c33 -6 71 -38 59 -50 -11 -11 -100
16 -113 34 -18 24 -16 36 5 28 9 -4 31 -9 49 -12z m-497 -39 c14 -35 13 -36
-10 -24 -23 12 -64 4 -55 -11 4 -5 17 -9 31 -9 14 0 24 -6 24 -15 0 -12 -5
-12 -40 0 -23 8 -38 10 -35 5 3 -6 -4 -10 -16 -10 -22 0 -69 35 -69 52 0 4 24
8 53 8 30 1 60 7 71 15 27 21 35 19 46 -11z m42 -71 c27 -24 22 -33 -17 -30
-39 2 -39 1 -25 28 13 23 18 24 42 2z m116 -4 c-2 -6 -6 -9 -9 -7 -3 2 -13 -3
-22 -11 -19 -15 -23 -1 -5 17 15 15 41 16 36 1z"/>
<path d="M1197 1423 c-18 -17 -5 -33 25 -31 29 3 32 0 45 -41 18 -62 45 -87
100 -94 25 -2 59 -15 75 -27 23 -17 33 -19 41 -10 18 18 -33 57 -85 65 -59 10
-84 28 -98 72 -7 21 -19 46 -28 56 -15 17 -62 23 -75 10z"/>
<path d="M1720 1166 c-67 -24 -164 -96 -129 -96 8 0 33 11 57 25 54 31 118 48
148 41 35 -9 29 -23 -12 -29 -41 -7 -127 -54 -119 -66 2 -5 21 -11 40 -13 29
-3 35 -1 35 14 0 22 18 24 26 3 11 -27 45 -17 57 15 6 17 19 33 29 36 12 3 18
15 18 34 0 25 -5 31 -37 39 -48 14 -70 13 -113 -3z"/>
<path d="M1297 1042 c-10 -10 -17 -27 -17 -37 0 -17 1 -17 20 0 27 24 36 13
20 -25 -16 -40 -1 -77 35 -86 35 -9 53 9 31 31 -12 12 -15 26 -11 49 5 23 1
38 -15 59 -25 32 -41 34 -63 9z"/>
</g>
</svg>
